<svg xmlns="http://www.w3.org/2000/svg" xmlns:xlink="http://www.w3.org/1999/xlink" width="1200" height="800" viewBox="0 0 1200 800"><rect width="100%" height="100%" fill="#DDDDDD"/><path d="M254.59 401.13L268.76 401.13Q273.97 401.13 277.85 399.82Q281.73 398.52 284.30 396.09Q286.87 393.65 288.14 390.17Q289.41 386.68 289.41 382.38L289.41 382.38Q289.41 378.29 288.14 374.97Q286.87 371.66 284.34 369.33Q281.80 367.01 277.92 365.77Q274.04 364.54 268.76 364.54L268.76 364.54L254.59 364.54L254.59 401.13ZM235.62 349.87L268.76 349.87Q278.98 349.87 286.45 352.27Q293.92 354.67 298.79 358.97Q303.65 363.27 306.01 369.26Q308.38 375.25 308.38 382.38L308.38 382.38Q308.38 389.78 305.91 395.95Q303.44 402.12 298.51 406.56Q293.57 411.00 286.13 413.47Q278.70 415.93 268.76 415.93L268.76 415.93L254.59 415.93L254.59 451.82L235.62 451.82L235.62 349.87ZM320.36 347.05L337.78 347.05L337.78 451.82L320.36 451.82L320.36 347.05ZM393.40 433.13L393.40 420.94Q385.86 421.29 380.71 422.24Q375.56 423.19 372.46 424.68Q369.36 426.16 368.02 428.13Q366.68 430.10 366.68 432.43L366.68 432.43Q366.68 437.01 369.39 438.99Q372.11 440.96 376.48 440.96L376.48 440.96Q381.84 440.96 385.75 439.02Q389.66 437.08 393.40 433.13L393.40 433.13ZM356.60 395.14L353.50 389.57Q365.98 378.14 383.53 378.14L383.53 378.14Q389.87 378.14 394.88 380.22Q399.89 382.30 403.34 386.01Q406.79 389.71 408.59 394.85Q410.39 400 410.39 406.13L410.39 406.13L410.39 451.82L402.49 451.82Q400.03 451.82 398.69 451.08Q397.35 450.34 396.57 448.08L396.57 448.08L395.02 442.86Q392.27 445.33 389.66 447.20Q387.05 449.07 384.23 450.34Q381.41 451.61 378.21 452.28Q375.00 452.95 371.12 452.95L371.12 452.95Q366.54 452.95 362.66 451.71Q358.78 450.48 355.96 448.01Q353.14 445.54 351.59 441.88Q350.04 438.21 350.04 433.35L350.04 433.35Q350.04 430.60 350.96 427.88Q351.88 425.17 353.95 422.70Q356.03 420.23 359.35 418.05Q362.66 415.86 367.49 414.24Q372.32 412.62 378.74 411.60Q385.15 410.57 393.40 410.36L393.40 410.36L393.40 406.13Q393.40 398.87 390.30 395.38Q387.20 391.89 381.34 391.89L381.34 391.89Q377.11 391.89 374.33 392.88Q371.54 393.87 369.43 395.10Q367.31 396.33 365.59 397.32Q363.86 398.31 361.75 398.31L361.75 398.31Q359.91 398.31 358.64 397.36Q357.37 396.40 356.60 395.14L356.60 395.14ZM483.15 388.44L478.56 394.78Q477.79 395.77 477.05 396.33Q476.31 396.90 474.90 396.90L474.90 396.90Q473.56 396.90 472.29 396.09Q471.02 395.28 469.26 394.25Q467.50 393.23 465.06 392.42Q462.63 391.61 459.04 391.61L459.04 391.61Q454.45 391.61 451.00 393.27Q447.54 394.92 445.25 398.03Q442.96 401.13 441.83 405.53Q440.71 409.94 440.71 415.51L440.71 415.51Q440.71 421.29 441.94 425.80Q443.17 430.31 445.50 433.38Q447.83 436.45 451.14 438.03Q454.45 439.62 458.61 439.62L458.61 439.62Q462.77 439.62 465.34 438.60Q467.92 437.58 469.68 436.34Q471.44 435.11 472.75 434.09Q474.05 433.06 475.67 433.06L475.67 433.06Q477.79 433.06 478.85 434.69L478.85 434.69L483.85 441.03Q480.96 444.42 477.58 446.71Q474.19 449.00 470.56 450.37Q466.93 451.75 463.09 452.31Q459.25 452.88 455.44 452.88L455.44 452.88Q448.74 452.88 442.82 450.37Q436.90 447.87 432.46 443.08Q428.02 438.28 425.44 431.34Q422.87 424.39 422.87 415.51L422.87 415.51Q422.87 407.54 425.16 400.74Q427.45 393.94 431.89 388.97Q436.33 384.00 442.89 381.18Q449.45 378.36 457.98 378.36L457.98 378.36Q466.09 378.36 472.18 380.96Q478.28 383.57 483.15 388.44L483.15 388.44ZM508.46 407.33L541.31 407.33Q541.31 403.95 540.36 400.95Q539.41 397.96 537.50 395.70Q535.60 393.44 532.67 392.14Q529.75 390.83 525.87 390.83L525.87 390.83Q518.33 390.83 513.99 395.14Q509.65 399.44 508.46 407.33L508.46 407.33ZM552.87 417.84L508.10 417.84Q508.53 423.41 510.08 427.46Q511.63 431.51 514.17 434.16Q516.70 436.80 520.19 438.11Q523.68 439.41 527.91 439.41L527.91 439.41Q532.14 439.41 535.21 438.42Q538.28 437.44 540.57 436.24Q542.86 435.04 544.59 434.05Q546.31 433.06 547.94 433.06L547.94 433.06Q550.12 433.06 551.18 434.69L551.18 434.69L556.18 441.03Q553.29 444.42 549.70 446.71Q546.10 449.00 542.19 450.37Q538.28 451.75 534.22 452.31Q530.17 452.88 526.36 452.88L526.36 452.88Q518.82 452.88 512.33 450.37Q505.85 447.87 501.05 442.97Q496.26 438.07 493.51 430.84Q490.76 423.62 490.76 414.10L490.76 414.10Q490.76 406.70 493.16 400.18Q495.55 393.65 500.03 388.83Q504.51 384.00 510.96 381.18Q517.41 378.36 525.52 378.36L525.52 378.36Q532.36 378.36 538.14 380.54Q543.92 382.73 548.08 386.92Q552.24 391.12 554.60 397.22Q556.96 403.31 556.96 411.14L556.96 411.14Q556.96 415.09 556.11 416.46Q555.27 417.84 552.87 417.84L552.87 417.84ZM587.42 347.05L587.42 387.24Q591.65 383.29 596.72 380.82Q601.80 378.36 608.64 378.36L608.64 378.36Q614.56 378.36 619.14 380.37Q623.72 382.38 626.79 386.01Q629.86 389.64 631.44 394.68Q633.03 399.72 633.03 405.78L633.03 405.78L633.03 451.82L615.62 451.82L615.62 405.78Q615.62 399.15 612.58 395.52Q609.55 391.89 603.35 391.89L603.35 391.89Q598.84 391.89 594.89 393.94Q590.94 395.98 587.42 399.51L587.42 399.51L587.42 451.82L570.00 451.82L570.00 347.05L587.42 347.05ZM681.53 378.36L681.53 378.36Q689.57 378.36 696.16 380.96Q702.75 383.57 707.44 388.37Q712.13 393.16 714.67 400.07Q717.21 406.98 717.21 415.51L717.21 415.51Q717.21 424.11 714.67 431.02Q712.13 437.93 707.44 442.79Q702.75 447.66 696.16 450.27Q689.57 452.88 681.53 452.88L681.53 452.88Q673.43 452.88 666.80 450.27Q660.17 447.66 655.48 442.79Q650.80 437.93 648.22 431.02Q645.65 424.11 645.65 415.51L645.65 415.51Q645.65 406.98 648.22 400.07Q650.80 393.16 655.48 388.37Q660.17 383.57 666.80 380.96Q673.43 378.36 681.53 378.36ZM681.53 439.48L681.53 439.48Q690.56 439.48 694.89 433.42Q699.23 427.35 699.23 415.65L699.23 415.65Q699.23 403.95 694.89 397.81Q690.56 391.68 681.53 391.68L681.53 391.68Q672.37 391.68 667.96 397.85Q663.56 404.02 663.56 415.65L663.56 415.65Q663.56 427.28 667.96 433.38Q672.37 439.48 681.53 439.48ZM730.74 347.05L748.16 347.05L748.16 451.82L730.74 451.82L730.74 347.05ZM810.97 430.39L810.97 397.96Q808.01 394.36 804.52 392.88Q801.03 391.40 797.01 391.40L797.01 391.40Q793.06 391.40 789.89 392.88Q786.72 394.36 784.46 397.36Q782.21 400.35 781.01 404.97Q779.81 409.59 779.81 415.86L779.81 415.86Q779.81 422.21 780.83 426.61Q781.85 431.02 783.76 433.80Q785.66 436.59 788.41 437.82Q791.16 439.06 794.54 439.06L794.54 439.06Q799.97 439.06 803.78 436.80Q807.59 434.55 810.97 430.39L810.97 430.39ZM810.97 347.05L828.38 347.05L828.38 451.82L817.74 451.82Q814.28 451.82 813.37 448.64L813.37 448.64L811.89 441.67Q807.52 446.67 801.84 449.77Q796.17 452.88 788.62 452.88L788.62 452.88Q782.70 452.88 777.77 450.41Q772.83 447.94 769.27 443.25Q765.71 438.56 763.77 431.65Q761.83 424.75 761.83 415.86L761.83 415.86Q761.83 407.83 764.02 400.92Q766.20 394.01 770.29 388.93Q774.38 383.86 780.09 381.00Q785.80 378.14 792.92 378.14L792.92 378.14Q798.99 378.14 803.29 380.05Q807.59 381.95 810.97 385.19L810.97 385.19L810.97 347.05ZM859.33 407.33L892.19 407.33Q892.19 403.95 891.24 400.95Q890.28 397.96 888.38 395.70Q886.48 393.44 883.55 392.14Q880.63 390.83 876.75 390.83L876.75 390.83Q869.20 390.83 864.87 395.14Q860.53 399.44 859.33 407.33L859.33 407.33ZM903.75 417.84L858.98 417.84Q859.40 423.41 860.96 427.46Q862.51 431.51 865.04 434.16Q867.58 436.80 871.07 438.11Q874.56 439.41 878.79 439.41L878.79 439.41Q883.02 439.41 886.09 438.42Q889.16 437.44 891.45 436.24Q893.74 435.04 895.47 434.05Q897.19 433.06 898.81 433.06L898.81 433.06Q901.00 433.06 902.06 434.69L902.06 434.69L907.06 441.03Q904.17 444.42 900.58 446.71Q896.98 449.00 893.07 450.37Q889.16 451.75 885.10 452.31Q881.05 452.88 877.24 452.88L877.24 452.88Q869.70 452.88 863.21 450.37Q856.73 447.87 851.93 442.97Q847.14 438.07 844.39 430.84Q841.64 423.62 841.64 414.10L841.64 414.10Q841.64 406.70 844.04 400.18Q846.43 393.65 850.91 388.83Q855.39 384.00 861.84 381.18Q868.29 378.36 876.40 378.36L876.40 378.36Q883.23 378.36 889.01 380.54Q894.80 382.73 898.96 386.92Q903.11 391.12 905.48 397.22Q907.84 403.31 907.84 411.14L907.84 411.14Q907.84 415.09 906.99 416.46Q906.15 417.84 903.75 417.84L903.75 417.84ZM936.25 383.86L937.31 392.03Q940.69 385.55 945.34 381.85Q950.00 378.14 956.34 378.14L956.34 378.14Q961.35 378.14 964.38 380.33L964.38 380.33L963.25 393.37Q962.90 394.64 962.23 395.17Q961.56 395.70 960.43 395.70L960.43 395.70Q959.37 395.70 957.29 395.35Q955.21 394.99 953.24 394.99L953.24 394.99Q950.35 394.99 948.09 395.84Q945.84 396.69 944.04 398.27Q942.24 399.86 940.87 402.12Q939.49 404.37 938.29 407.26L938.29 407.26L938.29 451.82L920.88 451.82L920.88 379.48L931.10 379.48Q933.78 379.48 934.84 380.44Q935.90 381.39 936.25 383.86L936.25 383.86Z" fill="#999999"/></svg>